<svg xmlns="http://www.w3.org/2000/svg" xmlns:xlink="http://www.w3.org/1999/xlink" version="1.1" x="0px" y="0px" viewBox="-55 147 500 625" style="enable-background:new -55 147 500 500;" xml:space="preserve"><path d="M417.1,372.6h-5v-145c0-14.1-11.5-25.6-25.6-25.6H3.5c-14.1,0-25.6,11.5-25.6,25.6v145h-5c-15.4,0-27.9,12.5-27.9,28v180.7  c0,5.9,4.8,10.8,10.7,10.8H6.6c5.9,0,10.7-4.8,10.7-10.8v-28.9c0-1.1,0.9-2,2-2h351.4c1.1,0,2,0.9,2,2v28.9  c0,5.9,4.8,10.8,10.7,10.8h50.9c5.9,0,10.7-4.8,10.7-10.8V400.6C445,385.2,432.5,372.6,417.1,372.6z M-0.6,227.6  c0-2.2,1.9-4.1,4.1-4.1h383c2.2,0,4.1,1.9,4.1,4.1v145h-22.2v-75.1c0-10.7-8.7-19.5-19.5-19.5H233c-10.7,0-19.5,8.7-19.5,19.5v75.1  h-37.1v-75.1c0-10.7-8.7-19.5-19.5-19.5H41.1c-10.7,0-19.5,8.7-19.5,19.5v75.1H-0.6V227.6z M346.9,372.6H235v-73.1h111.8v73.1H346.9  z M155,372.6H43.1v-73.1H155V372.6z M-27.1,394.1h15.7h412.6h15.7c3.5,0,6.4,3,6.4,6.5v81h-457v-81  C-33.5,397.1-30.6,394.1-27.1,394.1z M394.1,570.5v-18.1c0-12.9-10.5-23.5-23.5-23.5H19.3c-12.9,0-23.5,10.5-23.5,23.5v18.1h-29.3  v-67.4h457v67.4H394.1z"/><text x="-55" y="662" fill="#000000" font-size="5px" font-weight="bold" font-family="'Helvetica Neue', Helvetica, Arial-Unicode, Arial, Sans-serif">Created by Serhii Smirnov</text><text x="-55" y="667" fill="#000000" font-size="5px" font-weight="bold" font-family="'Helvetica Neue', Helvetica, Arial-Unicode, Arial, Sans-serif">from the Noun Project</text></svg>