<?xml version="1.0"?>
<svg xmlns="http://www.w3.org/2000/svg" width="50" height="50" viewBox="0 0 50 50" role="presentation" aria-hidden="true" focusable="false" >
  <path style="height: 24px; width: 24px; fill: currentcolor;" d="m21.5 8c-.17 0-.34.02-.5.04v-2.54a2.5 2.5 0 0 0 -2.5-2.5h-13a2.5 2.5 0 0 0 -2.5 2.5v2.54a3.32 3.32 0 0 0 -.5-.04c-1.47 0-2.49.84-2.5 2.5-.01.81.22 1.37.65 1.79.09.09.29.26.35.32-.01.17-.02.65-.02 1.37a184.39 184.39 0 0 0 .01 1.54c.01.83.68 1.49 1.51 1.49h1.5v1.49c0 .89.68 1.5 1.5 1.5.86 0 1.5-.6 1.5-1.5v-1.5h10v1.5c0 .9.68 1.5 1.5 1.5s1.5-.6 1.5-1.5v-1.5h1.51c.83 0 1.5-.67 1.5-1.5v-2.89c.08-.06.26-.2.34-.28.43-.4.65-.98.65-1.84 0-1.54-1.09-2.49-2.5-2.49zm-17.5-2.5c0-.83.67-1.5 1.5-1.5h13c .83 0 1.5.67 1.5 1.5v2.94c-.61.42-1 1.12-1 2.06v1.49c0 .01-14 .01-14 .01v-1.5c0-.98-.38-1.68-1-2.09zm2 13c0 .33-.18.5-.5.5-.29 0-.5-.19-.5-.5v-1.5h1zm13 0c0 .32-.21.5-.5.5-.3 0-.5-.18-.5-.5v-1.5h1zm3.66-6.89c-.06.06-.32.25-.35.27-.19.16-.31.35-.31.61v3.01a.5.5 0 0 1 -.5.5h-19a .5.5 0 0 1 -.51-.5 198.01 198.01 0 0 1 -.01-1.53c0-.75 0-1.28.02-1.43-.02-.3-.11-.46-.26-.62-.06-.06-.32-.28-.38-.34-.24-.24-.36-.54-.36-1.08.01-1.06.54-1.5 1.5-1.5.94 0 1.5.47 1.5 1.5v1.5c0 .56.45 1 1 1h14c .56 0 1-.45 1-1.01v-1.49c0-.98.6-1.5 1.5-1.5.89 0 1.5.53 1.5 1.5 0 .6-.12.91-.34 1.11z" fill-rule="evenodd" />
</svg>