<svg xmlns="http://www.w3.org/2000/svg" viewBox="0 0 1000 1000" role="presentation" aria-hidden="true" focusable="false" style="height: 24px; width: 24px; display: block; fill: currentcolor;"><path d="M928 417L680 606l95 306c3 12-6 24-16 24-3 0-5-1-8-4L500 741 251 931c-8 5-18 3-23-4-4-5-4-7-3-12l1-1 94-306L72 417c-8-7-10-11-6-23 3-8 9-12 14-12h309l96-307c2-6 8-11 14-11 7 0 13 5 16 13l96 305h309c6 0 12 4 14 12 4 12 3 16-6 23m44-35c-8-24-29-40-52-40H640L553 65c-7-24-29-41-54-41-24 0-45 16-52 39l-87 279H80c-23 0-44 16-52 40-9 28-2 50 19 67l227 174-86 278c-7 18-4 35 8 51 19 24 53 29 78 12l226-172 226 172c10 8 21 12 33 12 36 0 65-36 54-75l-87-280 226-172c22-17 29-39 20-67"></path></svg>
