<?xml version="1.0"?>
<svg aria-hidden="true" role="presentation" viewBox="0 0 32 32" xmlns="http://www.w3.org/2000/svg" style="display: block; height: 24px; width: 24px; fill: currentcolor;">
  <path style="text-indent:0;text-align:start;line-height:normal;text-transform:none;block-progression:tb;-inkscape-font-specification:Bitstream Vera Sans" d="M10 5a2 2 0 0 1 1.995 1.85L12 7v8h8V7a2 2 0 0 1 1.85-1.995L22 5h2a2 2 0 0 1 1.995 1.85L26 7v2h2a2 2 0 0 1 1.995 1.85L30 11v4h2v2h-2v4a2 2 0 0 1-1.85 1.995L28 23h-2v2a2 2 0 0 1-1.85 1.995L24 27h-2a2 2 0 0 1-1.995-1.85L20 25v-8h-8v8a2 2 0 0 1-1.85 1.995L10 27H8a2 2 0 0 1-1.995-1.85L6 25v-2H4a2 2 0 0 1-1.995-1.85L2 21v-4H0v-2h2v-4a2 2 0 0 1 1.85-1.995L4 9h2V7a2 2 0 0 1 1.85-1.995L8 5zm14 2h-2v18h2zM10 7H8v18h2zm18 4h-2v10h2zM6 11H4v10h2z"></path></svg>
