<svg xmlns="http://www.w3.org/2000/svg" viewBox="0 0 24 24" role="presentation" aria-hidden="true" focusable="false" style="height: 24px; width: 24px; fill: currentcolor;"><path style="text-indent:0;text-align:start;line-height:normal;text-transform:none;block-progression:tb;-inkscape-font-specification:Bitstream Vera Sans" d="m23.96 14.81-2.96-7.41v-5.02a1.39 1.39 0 0 0 -1.39-1.38h-15.22c-.77 0-1.39.62-1.39 1.38v5.02l-2.96 7.41-.04.19v5.61c0 .64.43 1.17 1.01 1.33 0 .02-.01.04-.01.06v1.5a.5.5 0 0 0 1 0v-1.5h20v1.5a.5.5 0 0 0 1 0v-1.5c0-.02-.01-.04-.01-.06a1.39 1.39 0 0 0 1.01-1.33v-5.61zm-19.96-12.43c0-.21.17-.38.39-.38h15.22a.39.39 0 0 1 .39.39v4.61h-1v-1.61c0-.77-.62-1.39-1.39-1.39h-3.21c-.78 0-1.4.62-1.4 1.39v1.61h-2v-1.61c0-.77-.62-1.39-1.39-1.39h-3.22c-.77 0-1.39.62-1.39 1.39v1.61h-1zm14 3.01v3.21a.39.39 0 0 1 -.39.39h-3.21a.39.39 0 0 1 -.4-.38v-3.22a.39.39 0 0 1 .39-.39h3.21a.39.39 0 0 1 .39.39zm-8 0v3.21a.39.39 0 0 1 -.39.4h-3.22a.39.39 0 0 1 -.39-.39v-3.22a.39.39 0 0 1 .39-.39h3.21a.39.39 0 0 1 .39.39zm-6.16 2.61h1.16v.61c0 .77.62 1.39 1.39 1.39h3.21c.78 0 1.4-.62 1.4-1.39v-.61h2v .61c0 .78.62 1.39 1.39 1.39h3.21c.78 0 1.4-.62 1.4-1.39v-.61h1.16l2.8 7h-21.92zm19.16 12.61c0 .21-.18.39-.39.39h-21.22a.39.39 0 0 1 -.39-.39v-4.61h22z" fill-rule="evenodd" />
</svg>
