<?xml version="1.0"?>
<svg xmlns="http://www.w3.org/2000/svg" width="50" height="50" viewBox="0 0 50 50">
  <path style="text-indent:0;text-align:start;line-height:normal;text-transform:none;block-progression:tb;-inkscape-font-specification:Bitstream Vera Sans" d="M27 3a2 2 0 0 1 1.995 1.85L29 5l-.001 14.816 2.43 6.482a2 2 0 0 1-.881 2.44l-.145.074-.144.06a2 2 0 0 1-.523.12l-.179.008H2.443a2 2 0 0 1-1.928-2.532l.055-.17L3 19.819 3 5a2 2 0 0 1 1.697-1.977l.154-.018L5 3zm.306 18H4.692l-2.249 6h27.114zM19 23v2h-6v-2zm8-18H5l-.001 14h22zM16 7a1 1 0 1 1 0 2 1 1 0 0 1 0-2z"></path></svg>
