<svg width="24" height="24" viewBox="0 0 24 24" xmlns="http://www.w3.org/2000/svg" role="presentation" aria-hidden="true" focusable="false" style="height: 24px; width: 24px; display: block; fill: currentcolor;"><path d="M19.5 9H19V7c0-3.86603-3.134-7-7-7-3.86597 0-7 3.13397-7 7h4c0-1.65686 1.3431-3 3-3s3 1.34314 3 3v2H4.5C3.72388 9 3 9.72382 3 10.5v12c0 .7761.72388 1.5 1.5 1.5h15c.7761 0 1.5-.7239 1.5-1.5v-12c0-.77618-.7239-1.5-1.5-1.5zm.5 13.5c0 .2238-.2761.5-.5.5h-15c-.22388 0-.5-.2762-.5-.5v-2.9701-6.9859V10.5c0-.2239.27612-.5.5-.5h11c.2761 0 .5-.22388.5-.5V7c0-2.20917-1.7908-4-4-4-1.8618 0-3.41254 1.27777-3.85858 3H6.08997C6.56696 3.16339 9.02777 1 12 1c3.3137 0 6 2.68628 6 6v2.5c0 .27612.2239.5.5.5h1c.2239 0 .5.2761.5.5v12zM12 12c-1.6569 0-3 1.3431-3 3 0 .8306.35535 1.5914.93567 2.149l-.8974 2.1591c-.13684.3293.1051.6919.46173.6919h5c.3538 0 .5956-.3573.4642-.6857l-.8745-2.1863C14.6517 16.5798 15 15.8222 15 15c0-1.6569-1.3431-3-3-3zm1.0358 5.1857L13.7615 19h-3.5122l.7422-1.7859c.0888-.2135.0195-.4599-.1673-.5961C10.3098 16.2435 10 15.6481 10 15c0-1.1046.8954-2 2-2s2 .8954 2 2c0 .6426-.3052 1.2375-.7955 1.5966-.1841.1348-.2535.3772-.1687.5891z" fill-rule="evenodd"></path></svg>