<svg xmlns="http://www.w3.org/2000/svg" viewBox="0 0 24 24" role="presentation" aria-hidden="true" focusable="false" style="height: 24px; width: 24px; fill: currentcolor;"><path d="m22.95 16.29v-.01l-.95-1.9-.01-5.38c0-1.47-1.46-2.77-2.99-2.97v-1.53a2.5 2.5 0 0 0 -2.51-2.5h-9.98a2.5 2.5 0 0 0 -2.51 2.5v1.55c-1.57.21-3 1.48-3 2.96v5.38l-.95 1.89v.01a.49.49 0 0 0 -.05.21v3a .5.5 0 0 0 .5.5h.5v1.5a.5.5 0 0 0 1 0v-1.5h19v1.5a.5.5 0 0 0 1 0v-1.5h.5a.5.5 0 0 0 .5-.5v-3a .49.49 0 0 0 -.05-.21zm-3.95-9.25c1.02.19 1.99 1.08 1.99 1.97v3.37l-1.99-4zm-7-4.04h4.49c.83 0 1.51.67 1.51 1.5v3.5h-6zm0 6h6.19l3.5 7h-20.38l3.5-7zm-7-4.5a1.5 1.5 0 0 1 1.51-1.5h4.49v5h-6zm-3 4.51c0-.89.94-1.76 2-1.96v1.33l-2 4zm20 9.99h-21v-2h21z" fill-rule="evenodd"></path></svg>
