<svg xmlns="http://www.w3.org/2000/svg" viewBox="0 0 24 24" role="presentation" aria-hidden="true" focusable="false" style="height: 24px; width: 24px; display: block; fill: currentcolor;"><path d="m18 5v-1c1.28 0 2-.72 2-2s-.72-2-2-2h-8.5c-1.44 0-2.5 1.42-2.5 3.5 0 .69.44 1.13 1.09 1.35.19.06.37.1.54.12l.37 1.11v4.69l-3.46 3.03c-.31.27-.54.79-.54 1.2v6.5c0 1.28 1.22 2.5 2.5 2.5h8c1.28 0 2.5-1.22 2.5-2.5v-6.5c0-.42-.23-.93-.54-1.2l-3.46-3.03v-4.77c0 .04.03-.08.08-.23.06-.19.16-.37.25-.55.04.06.07.12.11.19.32.5.69 1.01 1.12 1.48.97 1.07 2.08 1.83 3.32 2.1a.5.5 0 0 0 .52-.77c-.7-1.04-1.4-2.51-1.4-3.22zm1-3c0 .72-.28 1-1 1v-2c .72 0 1 .28 1 1zm-2 19.5c0 .72-.78 1.5-1.5 1.5h-8c-.72 0-1.5-.78-1.5-1.5v-5.14c.07.03.12.07.2.1.74.33 1.51.53 2.3.54a11.69 11.69 0 0 0 1.81-.14c.44-.06.83-.13 1.56-.27 1.59-.3 2.19-.39 2.93-.39.6 0 1.2.1 1.77.28.17.05.31.1.43.15zm-.2-6.95c.09.08.2.32.2.44v.57c-.05-.02-.09-.03-.14-.05a7.02 7.02 0 0 0 -2.06-.32c-.83 0-1.46.09-3.12.41a31.79 31.79 0 0 1 -1.52.26c-.62.09-1.16.13-1.66.13-.64-.01-1.28-.18-1.9-.46a5.38 5.38 0 0 1 -.61-.32v-.22c0-.13.11-.37.2-.45l3.63-3.18.17-.15v-2.21h3v-1h-3v-1h3.01v4 .23l.17.15 3.63 3.18zm-3.23-10.06a4.6 4.6 0 0 0 -.56 1.41v.1h-3.01l-.03-.16-.5-1.5-.11-.34h-.36a2.01 2.01 0 0 1 -.59-.1c-.29-.09-.41-.22-.41-.4 0-1.58.69-2.5 1.5-2.5h7.5v2h-1c-1.07 0-1.88.57-2.43 1.49zm2.74 1.72a9.76 9.76 0 0 1 -1.31-1.85 1.58 1.58 0 0 1 1-.36h1v1c0 .64.34 1.57.8 2.46a6.7 6.7 0 0 1 -1.49-1.25z" fill-rule="evenodd"></path></svg>