<svg viewBox="0 0 24 24" xmlns="http://www.w3.org/2000/svg" role="presentation" aria-hidden="true" focusable="false" style="height: 24px; width: 24px; display: block; fill: currentcolor;"><path d="M6 1.678V9.5c0 .333.088.533.304.701l4.953 3.801c.383.23 1.134.232 1.439.032l4.999-3.832c.2-.154.304-.417.305-.775V5.36v-3.66L12.35 6.87a.5.5 0 0 1-.675 0zM6.74 1l5.273 4.822L17.285 1zM5 1.5C5.002.718 5.72-.002 6.5 0h11c.78 0 1.5.72 1.5 1.5V9.428c-.001.645-.222 1.202-.696 1.567l-5.029 3.854c-.663.437-1.828.434-2.58-.021l-5.002-3.835C5.217 10.623 5 10.127 5 9.5zM15 20a3 3 0 1 0-6.001 0A3 3 0 0 0 15 20zm1 0a4 4 0 1 1-8 0 4 4 0 0 1 8 0z"></path></svg>
