<?xml version="1.0"?>
<svg aria-hidden="true" role="presentation" viewBox="0 0 32 32" xmlns="http://www.w3.org/2000/svg">
  <path style="text-indent:0;text-align:start;line-height:normal;text-transform:none;block-progression:tb;-inkscape-font-specification:Bitstream Vera Sans" d="m20.99 15.39-1.99-8.45v-5.44c0-.83-.68-1.5-1.5-1.5h-10a1.5 1.5 0 0 0 -1.5 1.5v5.44l-1.99 8.44-.01.12v5.01c0 .66.43 1.2 1.02 1.4-.01.03-.02.06-.02.09v1.5a.5.5 0 0 0 1 0v-1.5h13v1.5a.5.5 0 0 0 1 0v-1.5c0-.03-.01-.06-.02-.09a1.49 1.49 0 0 0 1.02-1.4v-5.01l-.01-.12zm-13.99-13.89a.5.5 0 0 1 .5-.5h9.99c.27 0 .5.23.5.5v4.5h-2v-2.51c.01-.82-.66-1.49-1.48-1.49h-4.02c-.82 0-1.49.67-1.49 1.49v2.51h-2zm8 1.99v4.02a.5.5 0 0 1 -.49.49h-4.02a.5.5 0 0 1 -.49-.49v-4.02c0-.27.22-.49.49-.49h4.02c.27 0 .49.22.49.49zm-8.01 3.63.01-.12h2v .51c0 .82.67 1.49 1.49 1.49h4.02c.82 0 1.49-.67 1.49-1.49v-.51h2l .01.12 1.86 7.88h-14.74l1.86-7.89zm13.01 13.39a.5.5 0 0 1 -.5.49h-14c-.28 0-.5-.22-.5-.49v-4.51h15z" fill-rule="evenodd" overflow="visible" enable-background="accumulate" font-family="Bitstream Vera Sans"/></svg>
