<svg aria-hidden="true" role="presentation" viewBox="0 0 32 32" xmlns="http://www.w3.org/2000/svg" style="display: block; height: 24px; width: 24px; fill: currentcolor;"><path d="M16 20a4 4 0 1 1 0 8 4 4 0 0 1 0-8zm0 2a2 2 0 1 0 0 4 2 2 0 0 0 0-4zm0-7a9 9 0 0 1 8.043 4.958L22.53 21.47a7.003 7.003 0 0 0-13.058 0l-1.514-1.514A9 9 0 0 1 16 15zm0-5c4.89 0 9.193 2.506 11.697 6.304l-1.45 1.45A11.993 11.993 0 0 0 16 12c-4.339 0-8.14 2.302-10.247 5.752l-1.45-1.449A13.987 13.987 0 0 1 16 10zm0-5c6.267 0 11.826 3.034 15.286 7.714l-1.432 1.432C26.773 9.821 21.716 7 16 7 10.285 7 5.228 9.82 2.146 14.145L.714 12.714C4.174 8.034 9.733 5 16 5z"></path></svg>
