<?xml version="1.0"?>
<svg xmlns="http://www.w3.org/2000/svg" width="50" height="50" viewBox="0 0 50 50">
    <path style="text-indent:0;text-align:start;line-height:normal;text-transform:none;block-progression:tb;-inkscape-font-specification:Bitstream Vera Sans" d="M 5 10 C 3.3555411 10 2 11.354427 2 13 L 2 28.1875 A 1.0001 1.0001 0 0 0 2.03125 28.375 A 1.0001 1.0001 0 0 0 2.03125 28.40625 C 1.5810761 29.11246 1.2166018 29.867299 0.9375 30.6875 C 0.31447732 32.518388 0.052405937 34.623024 0 37 L 0 38 A 1.0001 1.0001 0 0 0 0 38.09375 L 0 49 L 0 50 L 1 50 L 6 50 L 7 50 L 7 49 L 7 46 C 7 45.166667 7.2044523 44.733048 7.46875 44.46875 C 7.7330477 44.204452 8.1666667 44 9 44 L 41 44 C 41.833333 44 42.266952 44.204452 42.53125 44.46875 C 42.795548 44.733048 43 45.166667 43 46 L 43 49 L 43 50 L 44 50 L 49 50 L 50 50 L 50 49 L 50 38.15625 A 1.0001 1.0001 0 0 0 50 38 C 50 37.654961 50.007353 37.333521 50 37 C 49.947594 34.623024 49.685523 32.518388 49.0625 30.6875 C 48.786326 29.875902 48.412351 29.137532 47.96875 28.4375 A 1.0001 1.0001 0 0 0 48 28.1875 L 48 13 C 48 11.354427 46.644459 10 45 10 L 5 10 z M 5 12 L 45 12 C 45.563541 12 46 12.435573 46 13 L 46 26.15625 C 45.753108 25.94983 45.492555 25.751187 45.21875 25.5625 C 44.55149 25.102671 43.82415 24.673346 43 24.3125 L 43 20 C 43 19.29645 42.539038 18.749368 42.03125 18.40625 C 41.523462 18.063132 40.9016 17.823381 40.125 17.625 C 38.5718 17.228237 36.386144 17 33.5 17 C 30.613856 17 28.4282 17.228237 26.875 17.625 C 26.115898 17.818911 25.501391 18.044136 25 18.375 C 24.498609 18.044136 23.884102 17.818911 23.125 17.625 C 21.5718 17.228237 19.386144 17 16.5 17 C 13.613856 17 11.4282 17.228237 9.875 17.625 C 9.0983999 17.823381 8.4765382 18.063132 7.96875 18.40625 C 7.4609618 18.749368 7 19.29645 7 20 L 7 24.3125 C 6.1758503 24.673346 5.4485098 25.102671 4.78125 25.5625 C 4.5074449 25.751187 4.2468921 25.94983 4 26.15625 L 4 13 C 4 12.435573 4.4364589 12 5 12 z M 16.5 19 C 19.280856 19 21.34495 19.235513 22.625 19.5625 C 23.265025 19.725994 23.705757 19.927025 23.90625 20.0625 C 23.986447 20.11669 23.991624 20.124168 24 20.125 L 24 22 C 17.424613 22.043437 12.558989 22.536729 9 23.625 L 9 20.125 C 9.0083763 20.124168 9.0135528 20.11669 9.09375 20.0625 C 9.294243 19.927025 9.7349751 19.725994 10.375 19.5625 C 11.65505 19.235513 13.719144 19 16.5 19 z M 33.5 19 C 36.280856 19 38.34495 19.235513 39.625 19.5625 C 40.265025 19.725994 40.705757 19.927025 40.90625 20.0625 C 40.986447 20.11669 40.991624 20.124168 41 20.125 L 41 23.625 C 37.441011 22.536729 32.575387 22.043437 26 22 L 26 20.125 C 26.008376 20.124168 26.013553 20.11669 26.09375 20.0625 C 26.294243 19.927025 26.734975 19.725994 27.375 19.5625 C 28.65505 19.235513 30.719144 19 33.5 19 z M 24.8125 24 A 1.0001 1.0001 0 0 0 25.125 24 C 25.157963 24.00003 25.185878 23.999948 25.21875 24 C 35.225768 24.015791 41.009553 25.062089 44.09375 27.1875 C 45.647668 28.258351 46.589972 29.587785 47.1875 31.34375 C 47.707909 32.873084 47.91799 34.761919 47.96875 37 L 2.03125 37 C 2.0820097 34.761919 2.2920913 32.873084 2.8125 31.34375 C 3.4100279 29.587785 4.3523322 28.258351 5.90625 27.1875 C 8.9938231 25.059761 14.785238 24.01355 24.8125 24 z M 2 39 L 48 39 L 48 48 L 45 48 L 45 46 C 45 44.833333 44.704452 43.766952 43.96875 43.03125 C 43.233048 42.295548 42.166667 42 41 42 L 9 42 C 7.8333333 42 6.7669523 42.295548 6.03125 43.03125 C 5.2955477 43.766952 5 44.833333 5 46 L 5 48 L 2 48 L 2 39 z" overflow="visible" enable-background="accumulate" font-family="Bitstream Vera Sans"/>
</svg>
