<?xml version="1.0"?>
<svg xmlns="http://www.w3.org/2000/svg" width="50" height="50" viewBox="0 0 50 50">
    <path style="text-indent:0;text-align:start;line-height:normal;text-transform:none;block-progression:tb;-inkscape-font-specification:Bitstream Vera Sans" d="M 20 3 C 18.354937 3 17 4.3549372 17 6 L 17 9 L 3 9 C 1.3549372 9 0 10.354937 0 12 L 0 26.8125 A 1.0001 1.0001 0 0 0 0 27 L 0 44 C 0 45.645063 1.3549372 47 3 47 L 47 47 C 48.645063 47 50 45.645063 50 44 L 50 12 C 50 10.354937 48.645063 9 47 9 L 33 9 L 33 6 C 33 4.3549372 31.645063 3 30 3 L 20 3 z M 20 5 L 30 5 C 30.562937 5 31 5.4370628 31 6 L 31 9 L 19 9 L 19 6 C 19 5.4370628 19.437063 5 20 5 z M 3 11 L 47 11 C 47.562937 11 48 11.437063 48 12 L 48 26.84375 A 1.0001 1.0001 0 0 0 48 26.9375 L 48 27 C 48 27.562937 47.562937 28 47 28 L 3 28 C 2.4370628 28 2 27.562937 2 27 A 1.0001 1.0001 0 0 0 2 26.8125 L 2 12 C 2 11.437063 2.4370628 11 3 11 z M 25 22 C 23.895431 22 23 22.895431 23 24 C 23 25.104569 23.895431 26 25 26 C 26.104569 26 27 25.104569 27 24 C 27 22.895431 26.104569 22 25 22 z M 2 29.8125 C 2.3157637 29.926758 2.6469969 30 3 30 L 47 30 C 47.353003 30 47.684236 29.926758 48 29.8125 L 48 44 C 48 44.562937 47.562937 45 47 45 L 3 45 C 2.4370628 45 2 44.562937 2 44 L 2 29.8125 z" overflow="visible" enable-background="accumulate" font-family="Bitstream Vera Sans"/>
</svg>
