<?xml version="1.0"?>
<svg xmlns="http://www.w3.org/2000/svg" viewBox="0 0 50 50" enable-background="new 0 0 50 50">
    <path style="text-indent:0;text-align:start;line-height:normal;text-transform:none;block-progression:tb;-inkscape-font-specification:Bitstream Vera Sans" d="M 10 9 C 8.3545455 9 7 10.354545 7 12 L 7 29 L 7 42 A 1.0001 1.0001 0 0 0 8 43 L 12 43 A 1.0001 1.0001 0 0 0 13 42 L 13 40 C 13 39.445455 13.445455 39 14 39 L 36 39 C 36.554545 39 37 39.445455 37 40 L 37 42 A 1.0001 1.0001 0 0 0 38 43 L 42 43 A 1.0001 1.0001 0 0 0 43 42 L 43 25 L 43 12 C 43 10.354545 41.645455 9 40 9 L 10 9 z M 10 11 L 40 11 C 40.554545 11 41 11.445455 41 12 L 41 22.1875 C 40.684213 22.073267 40.353087 22 40 22 L 38 22 L 38 20 A 1.0001 1.0001 0 0 0 37.8125 19.40625 C 37.8125 19.40625 36.887005 18.205271 34.875 17.125 C 32.862995 16.044729 29.69652 15 25 15 C 20.30348 15 17.137005 16.044729 15.125 17.125 C 13.112995 18.205271 12.1875 19.40625 12.1875 19.40625 A 1.0001 1.0001 0 0 0 12 20 L 12 22 L 10 22 C 9.6469129 22 9.3157872 22.073267 9 22.1875 L 9 12 C 9 11.445455 9.4454545 11 10 11 z M 25 17 C 29.40348 17 32.224505 17.955271 33.9375 18.875 C 35.502964 19.715517 35.911002 20.318165 36 20.4375 L 36 22 L 14 22 L 14 20.4375 C 14.089 20.318165 14.497036 19.715517 16.0625 18.875 C 17.775495 17.955271 20.59652 17 25 17 z M 10 24 L 40 24 C 40.554545 24 41 24.445455 41 25 L 41 41 L 39 41 L 39 40 C 39 38.354545 37.645455 37 36 37 L 14 37 C 12.354545 37 11 38.354545 11 40 L 11 41 L 9 41 L 9 25 C 9 24.445455 9.4454545 24 10 24 z" overflow="visible" enable-background="accumulate" font-family="Bitstream Vera Sans"/>
</svg>
